<?xml version="1.0" standalone="no"?>
<!DOCTYPE svg PUBLIC "-//W3C//DTD SVG 20010904//EN"
 "http://www.w3.org/TR/2001/REC-SVG-20010904/DTD/svg10.dtd">
<svg version="1.0" xmlns="http://www.w3.org/2000/svg"
 width="700.000000pt" height="700.000000pt" viewBox="0 0 700.000000 700.000000"
 preserveAspectRatio="xMidYMid meet">
<metadata>
Created by potrace 1.14, written by Peter Selinger 2001-2017
</metadata>
<g transform="translate(0.000000,700.000000) scale(0.100000,-0.100000)"
fill="#000000" stroke="none">
<path d="M3295 6990 c-1060 -67 -2001 -584 -2630 -1445 -347 -476 -553 -1006
-642 -1655 -23 -164 -22 -552 2 -765 113 -1035 671 -1955 1535 -2532 380 -254
795 -427 1245 -518 250 -50 432 -68 695 -68 401 1 724 51 1090 173 536 177
984 453 1381 849 500 500 830 1124 963 1816 24 124 56 380 56 445 l0 30 -2095
0 -2095 0 0 90 0 90 2100 0 2100 0 -6 118 c-8 180 -33 393 -60 537 -202 1050
-862 1939 -1814 2443 -302 160 -673 286 -1024 348 -223 39 -573 58 -801 44z
m-435 -1760 c11 -11 20 -29 20 -40 0 -27 -35 -60 -63 -60 -35 0 -67 28 -67 57
0 57 69 84 110 43z m1490 -125 l0 -65 60 0 60 0 0 -40 0 -40 -60 0 -60 0 0
-194 c0 -217 1 -220 71 -221 40 0 41 -1 53 -56 5 -24 2 -27 -29 -33 -77 -15
-166 35 -185 102 -5 20 -10 119 -10 220 l0 182 -40 0 -40 0 0 40 0 40 40 0 40
0 0 65 0 65 50 0 50 0 0 -65z m-2292 -108 l3 -49 -30 7 c-43 9 -103 -10 -136
-45 l-30 -31 -3 -210 -3 -209 -45 0 -44 0 0 291 0 290 43 -3 c41 -3 42 -4 45
-40 l3 -37 27 30 c31 34 93 60 137 56 28 -2 30 -5 33 -50z m-838 -7 l5 -45 19
27 c35 53 78 71 160 66 59 -3 81 -8 114 -31 54 -35 87 -87 108 -167 38 -151
-18 -309 -129 -365 -91 -45 -184 -30 -245 39 l-32 37 0 -151 0 -150 -45 0 -45
0 0 396 0 395 43 -3 c42 -3 42 -3 47 -48z m1265 31 c113 -53 173 -196 145
-347 -24 -126 -111 -211 -227 -221 -117 -11 -201 36 -253 139 -27 56 -31 75
-31 147 0 191 93 301 256 301 47 0 83 -7 110 -19z m375 -313 c0 -307 -2 -336
-20 -375 -23 -53 -70 -83 -127 -83 l-43 0 0 40 c0 36 3 40 24 40 13 0 34 9 47
19 l24 19 3 336 3 336 44 0 45 0 0 -332z m495 313 c49 -23 99 -74 119 -123 9
-20 19 -69 22 -107 l7 -71 -212 0 -213 0 7 -32 c31 -151 189 -210 286 -108 36
37 38 38 78 28 22 -6 41 -14 41 -18 0 -17 -48 -76 -79 -97 -48 -33 -107 -46
-176 -40 -103 8 -173 57 -217 152 -33 71 -32 208 0 280 48 104 123 155 232
155 42 0 79 -7 105 -19z m624 -7 c54 -27 94 -74 106 -126 7 -28 6 -28 -39 -28
-39 0 -48 4 -55 23 -5 12 -21 33 -36 47 -23 21 -36 25 -90 25 -78 0 -109 -20
-145 -90 -34 -69 -34 -173 1 -242 55 -108 204 -124 260 -28 19 32 25 35 65 35
24 0 44 -5 44 -10 0 -24 -41 -89 -74 -118 -91 -80 -261 -65 -340 29 -53 63
-70 115 -70 214 0 102 21 165 77 224 72 76 196 95 296 45z m555 -2125 c3 -3 0
-22 -6 -42 -10 -34 -14 -37 -47 -35 -59 2 -79 -10 -92 -51 -6 -20 -9 -48 -7
-61 3 -23 8 -25 66 -28 l62 -3 0 -34 0 -34 -62 -3 -63 -3 -3 -247 -2 -248 -45
0 -45 0 0 250 0 250 -45 0 c-45 0 -45 0 -45 35 0 35 0 35 44 35 l43 0 5 68 c3
43 12 79 24 97 28 42 88 66 156 62 32 -2 60 -5 62 -8z m1034 -15 c26 -18 30
-65 6 -88 -8 -9 -28 -16 -44 -16 -36 0 -60 24 -60 60 0 30 30 60 60 60 9 0 26
-7 38 -16z m-240 -391 l2 -383 -50 0 -50 0 0 378 c0 208 3 382 7 386 4 4 25 6
48 4 l40 -3 3 -382z m-1328 257 l0 -70 60 0 60 0 0 -35 0 -35 -60 0 -60 0 0
-181 c0 -220 6 -239 82 -239 35 0 38 -2 44 -36 8 -43 -4 -54 -56 -54 -52 0
-120 38 -142 80 -16 30 -18 60 -18 232 l0 198 -45 0 c-45 0 -45 0 -45 35 0 35
0 35 45 35 l45 0 0 70 0 70 45 0 45 0 0 -70z m-1452 -86 c188 -93 187 -452 -1
-543 -48 -23 -137 -28 -183 -11 -15 6 -42 27 -60 47 l-34 37 0 -152 0 -152
-45 0 -45 0 0 395 0 395 45 0 45 0 0 -42 1 -43 24 27 c65 74 158 89 253 42z
m623 -2 c59 -30 111 -95 129 -160 13 -48 13 -166 0 -214 -32 -114 -130 -188
-249 -188 -110 1 -185 51 -233 155 -18 40 -22 68 -22 140 0 139 45 222 149
271 72 34 156 33 226 -4z m567 -14 l-3 -43 -60 -5 c-67 -6 -95 -20 -119 -61
-13 -22 -16 -61 -16 -228 l0 -201 -50 0 -50 0 0 285 0 285 45 0 45 0 0 -41 0
-42 22 28 c35 45 77 65 136 65 l53 0 -3 -42z m1237 8 c50 -30 98 -95 115 -156
13 -46 13 -165 0 -212 -32 -113 -131 -188 -249 -188 -110 1 -185 50 -233 155
-34 75 -32 209 3 286 28 60 85 115 140 136 57 22 169 11 224 -21z m1100 10
c104 -49 149 -132 149 -271 0 -72 -4 -100 -22 -140 -48 -104 -123 -154 -233
-155 -89 0 -161 36 -206 103 -41 61 -53 104 -53 192 0 88 12 131 53 191 66 98
201 133 312 80z m-495 -271 l0 -285 -50 0 -50 0 0 285 0 285 50 0 50 0 0 -285z"/>
<path d="M1300 4938 c-55 -38 -75 -89 -75 -193 0 -112 24 -163 92 -196 81 -39
162 -8 204 78 50 103 20 258 -60 310 -46 31 -116 31 -161 1z"/>
<path d="M2302 4943 c-61 -30 -92 -98 -92 -202 1 -169 128 -260 257 -182 104
64 101 308 -6 378 -41 28 -110 30 -159 6z"/>
<path d="M3170 4938 c-41 -28 -67 -63 -79 -105 l-10 -33 160 0 159 0 0 28 c0
101 -143 169 -230 110z"/>
<path d="M2360 2582 c-20 -11 -46 -38 -60 -63 -22 -38 -25 -56 -25 -134 0 -77
4 -96 25 -135 29 -52 76 -80 136 -80 56 0 103 33 133 94 49 99 23 256 -51 309
-39 29 -115 33 -158 9z"/>
<path d="M2981 2583 c-128 -63 -129 -331 -1 -395 120 -60 240 33 240 186 0 78
-14 127 -47 167 -49 57 -126 74 -192 42z"/>
<path d="M4770 2581 c-119 -63 -130 -300 -18 -384 37 -28 116 -34 162 -12 101
48 130 259 49 356 -49 58 -128 75 -193 40z"/>
<path d="M5905 2586 c-73 -33 -110 -115 -103 -228 9 -126 76 -196 180 -186 63
6 97 31 128 93 49 99 24 252 -50 305 -39 28 -113 36 -155 16z"/>
</g>
</svg>
